<svg id="Layer_1" data-name="Layer 1" xmlns="http://www.w3.org/2000/svg" viewBox="0 0 894.03 760.34"><path d="M609.15,740.31A4.63,4.63,0,0,0,605.8,739a4.74,4.74,0,0,0-3.38,1.31q-1.41,1.32-2.28,5.24a55.57,55.57,0,0,0-.87,11.29,49.82,49.82,0,0,0,.84,10.42c.56,2.48,1.31,4.15,2.25,5a4.67,4.67,0,0,0,3.32,1.32,4.79,4.79,0,0,0,3.41-1.35c1-.9,1.72-2.58,2.28-5.06a50.58,50.58,0,0,0,.84-10.54,56.14,56.14,0,0,0-.84-11.17Q610.53,741.64,609.15,740.31Z" transform="translate(-52.61 -119.72)"/><path d="M946.64,572.67q-24.63-5.56-51.29-10.89.48-22.83,1-45.66c0-217.46-178.94-396.4-396.4-396.4S103.53,298.66,103.53,516.12v45.73q-26.43,5.26-50.92,10.82V737.84h0l50.92,9.63v42l395,90.63,395-90.63V748l53.07-10-.19-.16.19,0Zm-656-346.21a76.64,76.64,0,0,0,8.43-10.1A101.29,101.29,0,0,1,324.94,190c14.52-10.12,30-18.73,45.7-26.8a42.94,42.94,0,0,0,6.47-4.33c3.3-2.53,6.59-4.89,11.11-4.16a22.82,22.82,0,0,0,3.51,0c4.73,0,9.35,0,13.95,1.84,6,2.42,12.3,3.93,18.35,6.17,4,1.49,8.21,3.06,10.71,7a37.65,37.65,0,0,1,5.88,19.46c.05,1.62-1,3.54-2.14,4.88a17.64,17.64,0,0,1-4.81,3.83c-4.37,2.54-9,4.19-14.13,2.46a52.32,52.32,0,0,1-5.14-2.56c-7.49-3.53-14.68-7.44-19.82-14.29-2.13-2.83-3.16-2.92-6.15-.82a88.16,88.16,0,0,0-7.83,6c-4,3.58-7.77,7.49-9.67,12.66-2,5.42-3.51,11-5.5,16.41-2.13,5.77-4.71,11.32-10.09,14.94a3.17,3.17,0,0,0-1.12,1.44,1.86,1.86,0,0,0,.17,1.52,1.57,1.57,0,0,0,1.37.28c5.14-1.76,10.47-1.57,15.75-1.33,6.65.31,12.51,2.68,16.66,8.13,2.83,3.71,5.38,7.63,8,11.47a5.41,5.41,0,0,0,4.91,2.48,80.49,80.49,0,0,1,18.64,1.35c7.69,1.64,15.22,3.74,21.2,9a190.63,190.63,0,0,1,15.57,15.57c4.05,4.52,5.84,5.38,11.1,2.43a102.17,102.17,0,0,0,11.67-7.69c3.42-2.58,5.88-6,6.18-10.52.47-7,.85-14,1.25-20.95.07-1.16-.48-1.63-1.67-1.85a4.93,4.93,0,0,1-4.28-4.41,31.15,31.15,0,0,1-.35-4.72c.05-5,.07-9.92.38-14.86.07-1.25,1.16-2.46,1.86-3.64.39-.66,1.27-1.21,1.33-1.86A59.47,59.47,0,0,1,488,196.94c3.28-7.94,8.11-14.62,16.54-17.39,16-5.26,31.3-4.5,44.78,6.92,3.16,2.67,6.41,5.58,7.2,9.84a107.27,107.27,0,0,1,1.36,13.89c.17,3.07-.23,6.17-.24,9.26a8.36,8.36,0,0,0,.78,2.68c.22.58.77,1.09.83,1.66.12,1.27-.06,2.57,0,3.85.32,5.5-1.08,10.77-2.15,16.08a4.88,4.88,0,0,1-4.32,4.13c-.55.09-1.15.83-1.43,1.42a6.91,6.91,0,0,0-.39,2.2,44.13,44.13,0,0,1-4.36,16c-1,2-1.92,4-2.79,6a5.17,5.17,0,0,0,.51,5.1c2.46,3.83,6.21,6.05,10.15,7.82,7.27,3.29,14.71,6.17,22,9.41,4.13,1.84,8.17,3.86,11.26,7.4,2,2.25,3.66,2.41,6.47,1.1a23.23,23.23,0,0,1,11.34-2.58c4.93.3,9.5,1.94,14.08,3.63,9.68,3.58,17.75,9.27,23.72,17.76,4.45,6.33,7.81,13.11,8.25,21a6.17,6.17,0,0,0,4,5.66c3.82,1.73,7.53,3.71,11.39,5.34,9.52,4,18,9.48,24.61,17.56,5.82,7.07,10.66,14.69,13.63,23.4a83.64,83.64,0,0,1,4.26,25.69,19.16,19.16,0,0,0,.34,2.36v6.21a7.65,7.65,0,0,0-.33,1.73c.17,4.9-1.5,8.71-5.77,11.54a55.38,55.38,0,0,0-8.12,7c-3.85,3.82-7.44,7.88-11.21,11.79a92.74,92.74,0,0,1-19.46,15.13,123.83,123.83,0,0,1-41.4,15.83c-6.75,1.23-13,3.13-17.9,8.37-5.87,6.33-13.19,8.81-21.85,8.71-6.27-.07-6.86-.82-4.45,6.31a18,18,0,0,1,1.24,7.66q-39.51-1.57-81-1.62h-2.68q-37,0-72.44,1.4c-.05-.5-.09-1-.17-1.5-.51-2.87-1.16-5.8.54-8.42a8.93,8.93,0,0,0,1.58-6c-.57-5.49,1.15-10.3,4.33-14.69a8.27,8.27,0,0,0,1.31-6.82,57.11,57.11,0,0,1-1.23-10.4c-.07-9.64.1-19.29.27-28.93.05-2.94.65-5.89.55-8.82-.08-2.48-.21-5.26-1.37-7.33-2.3-4.12-5.33-7.83-8-11.73a253.63,253.63,0,0,1-17.57-28.14c-4.67-9-7.43-18.62-10.35-28.23-2.73-9-5.66-18-8.15-27-1-3.66-3.17-5.62-6.33-7.22-8.75-4.44-18.11-6.82-27.66-8.55-7.63-1.39-14.47-4.27-20.18-9.58-9-8.36-16-18.35-22.54-28.59-5.34-8.33-10.43-16.85-15.18-25.53a145.11,145.11,0,0,1-7.4-16.77C284.86,234.61,286.85,230.34,290.62,226.46Zm-110,546.28a3.82,3.82,0,0,1-3.81,3.82H174a3.82,3.82,0,0,1-3.81-3.82V739.8A3.82,3.82,0,0,1,174,736h2.78a3.82,3.82,0,0,1,3.81,3.81Zm12.67,6.11a3.9,3.9,0,0,1-3.88,3.89h-2.64a3.89,3.89,0,0,1-3.88-3.89V733.69a3.89,3.89,0,0,1,3.88-3.89h2.64a3.9,3.9,0,0,1,3.88,3.89Zm63.1-19H206v24.33a4,4,0,0,1-3.94,3.94h-2.52a4,4,0,0,1-4-3.94V728.32a4,4,0,0,1,4-3.94H202a4,4,0,0,1,3.94,3.94v24.1h50.43Zm60.47,12.24a11.85,11.85,0,0,1-4.88,4.35,16.46,16.46,0,0,1-7.46,1.61,24.58,24.58,0,0,1-9.64-2l-4.61,2a27.32,27.32,0,0,1-2-7.09,50.47,50.47,0,0,1-.84-8.54h6a15.27,15.27,0,0,0,3.77,7.94,9,9,0,0,0,6.65,2.9,4.57,4.57,0,0,0,3.72-1.44,4.87,4.87,0,0,0,1.19-3.17,5.35,5.35,0,0,0-2.24-4.34,36.74,36.74,0,0,0-6.44-3.81,26.16,26.16,0,0,1-8.5-6.1,12.09,12.09,0,0,1-2.88-8.15,10.68,10.68,0,0,1,1.77-6.14,11.27,11.27,0,0,1,4.82-4,16.37,16.37,0,0,1,6.83-1.38,25.86,25.86,0,0,1,4.28.39,11.46,11.46,0,0,1,3.68,1.17l5.09-1.56a12.59,12.59,0,0,1,1.38,5.12c.2,2.18.3,4.68.3,7.52v.9h-5q-2.16-8.75-8.45-8.75a4.56,4.56,0,0,0-3.59,1.35,5.72,5.72,0,0,0-.24,6.68,8.74,8.74,0,0,0,2.43,2.25A43.13,43.13,0,0,0,306,752a71.51,71.51,0,0,1,6.32,3.47,15.59,15.59,0,0,1,4.4,4.29,10.72,10.72,0,0,1,1.85,6.31A11.32,11.32,0,0,1,316.85,772.14Zm31.95.57a4.46,4.46,0,0,0,2.78.66,6.26,6.26,0,0,1-.36,2.1,5.54,5.54,0,0,1-1,1.73H335.71a5.54,5.54,0,0,1-1-1.73,6.26,6.26,0,0,1-.36-2.1,4.5,4.5,0,0,0,2.79-.66,2.87,2.87,0,0,0,.81-2.33V742.23a3,3,0,0,0-.81-2.37,4.35,4.35,0,0,0-2.79-.69,6.08,6.08,0,0,1,.36-2,5.6,5.6,0,0,1,1-1.74h14.55a5.6,5.6,0,0,1,1,1.74,6.08,6.08,0,0,1,.36,2,4.31,4.31,0,0,0-2.78.69,3,3,0,0,0-.81,2.37v28.15A2.87,2.87,0,0,0,348.8,772.71ZM405,739.89a2.63,2.63,0,0,0-1,2.34v35.33h-2.39a9.44,9.44,0,0,1-4.32-.75,8,8,0,0,1-2.63-2.6l-16.77-25.45v21.62q0,3,4.37,3a5.8,5.8,0,0,1-1.37,3.77H368.41a5.78,5.78,0,0,1-1.32-3.77,5.45,5.45,0,0,0,3.12-.72,2.68,2.68,0,0,0,1-2.33V742.23c0-2-1.45-3.06-4.37-3.06a6.08,6.08,0,0,1,.36-2,5.6,5.6,0,0,1,1-1.74h8.32a5.67,5.67,0,0,1,3.48,1.35,15.4,15.4,0,0,1,3.29,3.74l13.6,21.5V742.23a2.61,2.61,0,0,0-1.08-2.34,5.76,5.76,0,0,0-3.18-.72,6,6,0,0,1,.36-2.06,5.05,5.05,0,0,1,1-1.71h12.76a5,5,0,0,1,1,1.74,6.33,6.33,0,0,1,.35,2A5.45,5.45,0,0,0,405,739.89ZM435,845.6l-9.37-6.23-10.44,4.18,3-10.83-7.19-8.61,11.22-.48,6-9.51,3.92,10.54,10.89,2.74-8.82,7Zm1.06-78.88a10.79,10.79,0,0,0,8.68,4,10.33,10.33,0,0,0,4.56-1,6.7,6.7,0,0,0,2.81-2.28,4,4,0,0,1,1.2,1.62,4.92,4.92,0,0,1,.48,2,4.68,4.68,0,0,1-1.53,3.12,11.63,11.63,0,0,1-4.4,2.72,18.39,18.39,0,0,1-6.65,1.11,19.24,19.24,0,0,1-9.61-2.45,17.53,17.53,0,0,1-6.92-7.43,26,26,0,0,1-2.57-12,26.81,26.81,0,0,1,2.33-11.71,16.32,16.32,0,0,1,6.56-7.24,19.42,19.42,0,0,1,9.85-2.43,14.49,14.49,0,0,1,3,.36,13.43,13.43,0,0,1,2.93,1,14.79,14.79,0,0,1,2.64-.84,16.62,16.62,0,0,1,2.69-.48q1.74,4.26,1.74,14H447.1a14.66,14.66,0,0,0-2.19-6.41,4.93,4.93,0,0,0-4.22-2.4,6.59,6.59,0,0,0-5.81,3.45q-2.14,3.44-2.15,10.63Q432.73,762.72,436.08,766.72Zm32.22,6.71a5,5,0,0,0,3-.72,2.82,2.82,0,0,0,.95-2.39V742.23a2.78,2.78,0,0,0-.93-2.34,4.82,4.82,0,0,0-3-.72,6.12,6.12,0,0,1,1.38-3.77H493a10.32,10.32,0,0,1,2.37-.75,12.75,12.75,0,0,1,2.48-.27,37.35,37.35,0,0,1,1.95,4.79,15.78,15.78,0,0,1,1.05,4.44,8.75,8.75,0,0,1-2.46,1.37,15.78,15.78,0,0,1-3,1,9.79,9.79,0,0,0-2.46-3.83,5.41,5.41,0,0,0-3.89-1.62h-6.77v12.64h4.32q3.89,0,3.89-4.37a9.55,9.55,0,0,1,4.85,1.25v11.14a8,8,0,0,1-2.22.93,10.06,10.06,0,0,1-2.57.33,4.78,4.78,0,0,0-1.08-3.41,3.7,3.7,0,0,0-2.81-1.14h-4.38v14.07h7.25a5.65,5.65,0,0,0,4.37-2.12,10.13,10.13,0,0,0,2.34-5.24h6.41a44.9,44.9,0,0,1-1,7,29.11,29.11,0,0,1-1.74,6.56,15.22,15.22,0,0,1-2.52-1H469.68A6.08,6.08,0,0,1,468.3,773.43Zm37.12,75.85-6.89,14-6.89-14-15.42-2.23,11.17-10.88-2.64-15.33,13.78,7.24,13.76-7.24-2.62,15.33,11.17,10.88Zm37.5-71.42.06-.06-.12.06-1.92-1.5a19.09,19.09,0,0,1,2.16-6,31.85,31.85,0,0,1,3.35-4.88q1.8-2.13,4.79-5.13t4.65-4.94a19.81,19.81,0,0,0,2.84-4.43,12.13,12.13,0,0,0,1.14-5.24,7.2,7.2,0,0,0-1.62-5.12,5.64,5.64,0,0,0-4.31-1.7,6.26,6.26,0,0,0-5.39,2.63,4.37,4.37,0,0,1,2.51,1.77,4.79,4.79,0,0,1,1,2.84,4.33,4.33,0,0,1-1.7,3.53,6.08,6.08,0,0,1-3.93,1.38,5.56,5.56,0,0,1-4-1.64A6,6,0,0,1,540.7,745a7.94,7.94,0,0,1,1.89-5.09,13.05,13.05,0,0,1,5.33-3.74,20.66,20.66,0,0,1,7.88-1.41,17.48,17.48,0,0,1,10.69,3.09q4.15,3.07,4.16,8.95a12.42,12.42,0,0,1-1.77,6.65,18.49,18.49,0,0,1-4.34,4.88,79.75,79.75,0,0,1-6.83,4.64c-2.51,1.6-4.51,2.95-6,4.07a16.29,16.29,0,0,0-3.65,3.78,26.4,26.4,0,0,1,4.37-1.35,21,21,0,0,1,4.61-.57h3.18a9.88,9.88,0,0,0,5.18-1.35,6.17,6.17,0,0,0,2.9-3.74H570a6,6,0,0,1,1.56,2.39,9.33,9.33,0,0,1,.6,3.3,7.7,7.7,0,0,1-2.43,5.72c-1.62,1.57-4.24,2.36-7.88,2.36a40.1,40.1,0,0,1-5.39-.48,49.64,49.64,0,0,0-6.16-.48A19,19,0,0,0,542.92,777.86Zm39,65.69-10.44-4.18-9.37,6.23.77-11.2-8.81-7,10.91-2.74,3.9-10.54,6,9.51,11.25.48-7.22,8.61Zm23.81-65.75q-17.07,0-17.07-21.08,0-11.55,4.5-16.74t12.69-5.18q8.26,0,12.7,5.18t4.43,16.8Q622.93,777.81,605.68,777.8Zm58-2.42a4.36,4.36,0,0,1-1,1.82H643.11a4,4,0,0,1-1.05-1.82,7.5,7.5,0,0,1-.39-2.25,8.39,8.39,0,0,0,4.88-1.2c1.14-.79,1.71-2.17,1.71-4.13V746.12c0-1.28-.9-1.91-2.7-1.91a10.74,10.74,0,0,0-1.94.2,8.22,8.22,0,0,0-1.83.57l-1.62-3,9.35-5.45a17.08,17.08,0,0,1,3-1.47,6.66,6.66,0,0,1,2.07-.39,2.4,2.4,0,0,1,2.15,1,4,4,0,0,1,.66,2.25V767.8c0,2,.55,3.38,1.65,4.16a8.66,8.66,0,0,0,5,1.17A7.5,7.5,0,0,1,663.68,775.38Zm37.79-21.11a54.81,54.81,0,0,0-2.37,15.81v3.35a3.94,3.94,0,0,1-1.43,3.14q-1.44,1.23-5.57,1.23a12,12,0,0,1-5-.9,50.06,50.06,0,0,1,4.28-17.3,80.5,80.5,0,0,1,11.53-17.85,36.11,36.11,0,0,1-10.36,1.5,9.33,9.33,0,0,0-5,1,5.92,5.92,0,0,0-2.18,3.71H682a8.17,8.17,0,0,1-1.8-2.61,8.94,8.94,0,0,1-.72-3.74,6.68,6.68,0,0,1,1.86-5q1.85-1.83,5.75-1.83a24.31,24.31,0,0,1,3.32.33c1.46.22,2.38.35,2.78.39a77.12,77.12,0,0,0,9.89,1,9.05,9.05,0,0,0,2.87-.33,12.37,12.37,0,0,0,2.63-1.59l2.16,2.94Q703.84,746.37,701.47,754.27Zm101.21,30a4,4,0,0,1-3.94,3.94h-2.53a4,4,0,0,1-3.94-3.94V759.9H741.85v-7.48h50.42v-24.1a4,4,0,0,1,3.94-3.94h2.53a4,4,0,0,1,3.94,3.94Zm12.67-5.38a3.9,3.9,0,0,1-3.89,3.89h-2.63a3.9,3.9,0,0,1-3.89-3.89V733.69a3.9,3.9,0,0,1,3.89-3.89h2.63a3.9,3.9,0,0,1,3.89,3.89ZM828,772.74a3.83,3.83,0,0,1-3.82,3.82h-2.77a3.83,3.83,0,0,1-3.82-3.82V739.8a3.83,3.83,0,0,1,3.82-3.81h2.77A3.83,3.83,0,0,1,828,739.8Zm102-55.61c-3.2-.69-6.41-1.33-9.62-2a2050.07,2050.07,0,0,0-300.81-40.24q-59.93-3.54-120-3.59h-2.7q-60,.08-120.06,3.75A2048.94,2048.94,0,0,0,78.68,715.16c-3.14.66-6.3,1.29-9.44,2V586c11.41-2.5,22.84-4.86,34.29-7.16A2013.73,2013.73,0,0,1,497,539.4h2.68A2013.77,2013.77,0,0,1,895,578.71q17.53,3.51,35,7.3Z" transform="translate(-52.61 -119.72)"/><polygon points="0 618.11 0 618.11 0 618.11 0 618.11"/><path d="M570.78,467.4c-.09,1.37.56,1.87,1.83,1.84.82,0,1.65,0,2.48,0a23,23,0,0,1,12.82,3c5.42,3.14,10.9,1.75,14.79-3.23,4.18-5.34,9-9.79,15.62-11.93,8.13-2.66,12.93-8.19,14.82-16.44,1.15-5,3.34-9.44,7.52-12.69a4.91,4.91,0,0,0,1.39-2c.79-1.91.31-2.93-1.67-3.37a23.39,23.39,0,0,1-11.26-6.52c-5.65-5.52-11.28-11.09-15.81-17.63a25.5,25.5,0,0,0-3.17-3.24,45.68,45.68,0,0,0-2.24,4.05c-4.1,9.33-9.19,18.06-16.66,25.08-4,3.79-8.64,7-13.1,10.27-2.8,2.07-5.26,4.32-5.64,8-.73,7-1.35,14.05-2,21.08l.3,0C570.79,464.92,570.86,466.16,570.78,467.4Z" transform="translate(-52.61 -119.72)"/><path d="M152.15,691.11c-.13-1.51-.2-3.25-.2-5.21s.05-3.71.1-5.26c.08-2.37,1.15-4,2.12-4a2.49,2.49,0,0,0,1.06,0c.41-.14.68-.83.68-1.81V654.1l-.2-9.4a49.35,49.35,0,0,0-1.69-6.38c-.73-2.23-1.49-3.55-2.26-4,.83-.44,1.59-1.57,2.26-3.36a32.6,32.6,0,0,0,1.5-5.1V619c0-.7,0-1.36,0-2s.05-1.3.05-2v-1.88q0-1.24.09-2.31c0-.14-.06-.61-.19-1.42v-3.54a35.93,35.93,0,0,0,.15-4.1c0-1.31-.09-2.51-.15-3.62,0-.13-.06-.19-.19-.17l-.78.15-.62.13a.57.57,0,0,1-.53-.11c-.9,0-1.35-1-1.35-3.13l.1-11.49a6.17,6.17,0,0,1,1.15-1.71,11.49,11.49,0,0,1,2.61-.83,10.65,10.65,0,0,1,2.62-.4c7.75-1.51,11.71-2.25,19.77-3.72a3.81,3.81,0,0,1,1.3,0,3.85,3.85,0,0,1,1.21.41,5.77,5.77,0,0,1,3.63,3.64,37,37,0,0,1,2.14,6.65,23.12,23.12,0,0,1,.66,3.86q.15,1.86.15,4v1.89q.11,4.38.1,10V617.4c0,.71,0,1.37-.05,2s-.08,1.31-.15,2a18.14,18.14,0,0,0,1.6,3.71,3.48,3.48,0,0,0,2.12,1.93,23.22,23.22,0,0,0-3.1,3q-1.95,2.12-3.67,4.31-.41.92-.51.93l-.7,1a20.82,20.82,0,0,1-1.27,2c-.5.72-.82,1.09-.95,1.12a7.72,7.72,0,0,1-1.46.89l-1.45.68a6.82,6.82,0,0,1-1.63.51l-1.63.3-1.67.31a12.44,12.44,0,0,1-1.66.09,22.82,22.82,0,0,0-3.21.71c-1.27.31-2.37.62-3.3.94-.13,0-.17.33-.19.87,0,1-.1,2-.1,3v6.18c0,.91,0,1.92.1,3V671.5a13.2,13.2,0,0,0,.1,1.66c.1.92.29,1.34.69,1.12l1.78-.33a1.07,1.07,0,0,1,1.34.69,9.5,9.5,0,0,1,.45,2.75c.06,1.24.09,2.67.09,4.27V686a7.13,7.13,0,0,1-.54,3.15,4.6,4.6,0,0,1-1.34,1.61c-.33.06-.53,0-.6-.1a32.25,32.25,0,0,0-3.58.48l-3.63.69-5.68,1.11a1,1,0,0,1-.87-.25l.38.14q-.09,0-.09-.09c0-.07,0-.1-.1-.09C152.66,692,152.49,691.71,152.15,691.11Zm3.95-42.29a5.49,5.49,0,0,0-.09-1.66v1.05A1.53,1.53,0,0,0,156.1,648.82Zm8.41-24.46a14.69,14.69,0,0,0,.1,1.86c0,.13,0,.2.1.18a1.56,1.56,0,0,0,.89,0l9.55-1.78a10.32,10.32,0,0,0,1.17-.73,2.63,2.63,0,0,0,.86-1.3,24.79,24.79,0,0,0,1-5.19c-.07-1.1-.1-2.37-.1-3.83V600.18q-.21-5.37-2.65-5.55c-.13-.12-.23-.17-.3-.16l-4.75.88c-.87.16-1.72.29-2.55.37s-1.65.21-2.45.36c-.46.09-.72.64-.79,1.61-.06.7-.1,1.34-.1,1.89v24.78Zm16.43,15c.07,0,.1-.09.1-.23a1.26,1.26,0,0,1,.1-.44C180.94,639.12,180.87,639.34,180.94,639.33Z" transform="translate(-52.61 -119.72)"/><path d="M236.33,651.83c0-2,0-3.84,0-5.67s0-3.73,0-5.65a17.39,17.39,0,0,0-.23-2.38c-.15-.88-.3-1.73-.44-2.55a4.81,4.81,0,0,0-3.78-3.63l-5.74.87-2.25.35a7.86,7.86,0,0,0-2.24.77l-.65.1a2.25,2.25,0,0,0-.55,1.35v5q.11,3.12.17,7.1c0,2.65,0,5,0,7.12,0,3.17.11,6.87.11,11v11.22a8.16,8.16,0,0,1-.44,3.21,3.36,3.36,0,0,1-1.63,1.51c-4.08.65-6.11,1-10.12,1.64a1.26,1.26,0,0,1-1.29-.73,6,6,0,0,1-.63-2.73,62.58,62.58,0,0,1,.32-10.12c.2-1.84.78-2.85,1.7-3l1.61-.26a1.56,1.56,0,0,0,.53-1.14v-29q-.21-1.43-.69-3.33c-.32-1.27-.68-2.47-1.07-3.59a22.62,22.62,0,0,0-1.29-3,3.27,3.27,0,0,0-1.43-1.64c1-.45,1.9-1.75,2.72-3.92a39.36,39.36,0,0,0,1.76-5.87V596.92a15.59,15.59,0,0,1,.06-1.59,6.54,6.54,0,0,1,.16-1v.21a13.84,13.84,0,0,0,.21-1.72,3.6,3.6,0,0,1-.21-1.23c0-.38-.13-.86-.16-1.34s-.06-1.08-.06-1.78q-.11,0-.21-.18c-.07-.12-.13-.18-.16-.18s-.09,0-.16-.19a.37.37,0,0,1-.27-.06.51.51,0,0,0-.27-.06,3.24,3.24,0,0,1-1.39-.19,2.24,2.24,0,0,1-1.28-.94,4.93,4.93,0,0,1-.53-2.54v-8.38c.21-2.69,1-4.16,2.45-4.39l1.5-.25a1.7,1.7,0,0,1,.81-.33l.8-.13,2.15-.35c.15,0,.36.08.65.31a.5.5,0,0,0,.43.14l-.32-.57a1.42,1.42,0,0,0,.86.28l.76-.12a1.65,1.65,0,0,1,.54,0,2,2,0,0,0,.65,0l.87-.14.11,0c.07-.15.14-.23.22-.24a.62.62,0,0,0,.27-.15.93.93,0,0,1,.49-.18.42.42,0,0,1,.27.06.6.6,0,0,0,.38,0l.44-.07-.11-.19a1.38,1.38,0,0,0,.92.28l.93-.15c5.07-.79,7.63-1.18,12.8-2a5.42,5.42,0,0,1,2.68.24,8.31,8.31,0,0,1,2.47,1.32,11.45,11.45,0,0,1,2.59,4.67l-.12-.2a20.6,20.6,0,0,1,1.75,6.06c.34,2.33.58,4.62.74,6.83.07,1,.13,2,.17,3.23s0,2.34,0,3.46v3.57c0,.7,0,1.33.06,1.88s.06,1.12.06,1.68,0,1.37-.06,2-.09,1.39-.17,2.23-.13,1.57-.17,2.55a5.74,5.74,0,0,1-.28,1.93c-.15.72-.29,1.41-.4,2a15.55,15.55,0,0,1-.51,2.07V613c-.45,1.61-.94,3.12-1.46,4.52a8.13,8.13,0,0,1-2.25,3.37,11.27,11.27,0,0,1,2.92,3.44,22.59,22.59,0,0,1,1.92,4.85,20.06,20.06,0,0,1,.62,3.89c.12,1.51.22,3,.29,4.35.08,1.79.13,3.81.17,6s.05,4.24.05,6.06v2.09c0,1.11,0,2.26-.05,3.45a17.38,17.38,0,0,0,.17,3,3.44,3.44,0,0,0,.51,1.81,3.89,3.89,0,0,0,1.19.67l.45-.07a.54.54,0,0,0,.34-.15.57.57,0,0,1,.35-.15c1-.14,1.63.75,1.93,2.66v6.5c0,1.12-.06,2.26-.11,3.37-.13,2.62-.84,4.1-2.28,4.3l-1.93.27a4.16,4.16,0,0,0-1,.25,5.17,5.17,0,0,1-1,.24l-3.38.48a12.16,12.16,0,0,1-1.58.13,11.41,11.41,0,0,0-1.68.14q-2,.29-2.12-3.67V668c-.05-4.1-.07-6.15-.11-10.26Zm-25.39-14.5v0ZM227,615.71l5.41-.83c.82-.12,1.56-1.09,2.11-2.84a15.89,15.89,0,0,0,.78-5.19c0-1.22-.11-2.65-.11-4.2V589.56a4.18,4.18,0,0,0-.11-1,10.57,10.57,0,0,0-1.22-2.56,2.33,2.33,0,0,0-1.56-1,3.72,3.72,0,0,0-1.16,0,10.5,10.5,0,0,1-1.16.17,12.9,12.9,0,0,0-2.1.11c-1,.15-1.75.21-2.09.32a7,7,0,0,1-1.15.39l-1.15.18-2.41.37c-.21,0-.32.2-.32.48v21c0,1.76-.15,3.49-.22,5a12.93,12.93,0,0,0,.11,2.09c.15,1.32.36,2.06.87,2l2.73-.43a10.75,10.75,0,0,0,1.27-.3,11.4,11.4,0,0,1,1.48-.33Z" transform="translate(-52.61 -119.72)"/><path d="M304.44,647.28a55.94,55.94,0,0,1-.86,10.37q-1.71,8.57-7,12.31a12.31,12.31,0,0,1-5.3,1.87c-1,.12-2.1.21-3.17.27s-2.14.14-3.17.27l-3.15.38c-1,.12-2.11.11-3.14.18-.74,0-1.69.17-2.71.23a8.85,8.85,0,0,1-2.71-.18,9.22,9.22,0,0,1-2-.9,7.24,7.24,0,0,1-2-1.74h.12a15.29,15.29,0,0,1-3.26-5.87,24.69,24.69,0,0,1-1-3.64,21.44,21.44,0,0,1-.29-4.58c0-1.51,0-3.11-.06-4.71s-.1-3.24-.18-4.9v-9c0-1.53,0-3,.06-4.51s.06-3,.06-4.52v-1.89a53.24,53.24,0,0,0-1.74-6.27q-1.15-3.4-2.66-4a5.83,5.83,0,0,0,2.37-2.52,16.92,16.92,0,0,0,1.68-4.1V599.28c0-.28,0-.64.06-1.06s.06-.78.06-1.06a8.52,8.52,0,0,0-.12-3.13,6.75,6.75,0,0,1,.12-2.74v.21a7.32,7.32,0,0,0,.11-2.11l-.11-.19a9.62,9.62,0,0,1,.23-5.07v-.41a13.86,13.86,0,0,1,.12-1.91,32.37,32.37,0,0,1,3.84-14.55v.21a11.85,11.85,0,0,1,1.63-2.41,8.66,8.66,0,0,1,1.76-1.58,12.7,12.7,0,0,1,4.82-1.45l2.6-.32c.95-.12,1.86-.2,2.73-.23a11.83,11.83,0,0,0,2.61-.42l2-.25,1.26-.14a4.26,4.26,0,0,0,1.25-.36h-.12a4.85,4.85,0,0,1,3.73-.22,1.53,1.53,0,0,0,.84.11l.72-.08c1.85-.21,3.7.83,5.57,3.14a16.44,16.44,0,0,1,2.67,5,29.71,29.71,0,0,1,1.34,5.93c.15,1.23.28,2.63.37,4.16s.14,3.07.12,4.6c0,3.19-.12,6.51-.12,9.86s-.31,7,0,9.86a16.15,16.15,0,0,0,1.83,4.93c.89,1.79,1.91,2.77,3.06,2.92-1.23.84-2.29,2.73-3.18,5.69a45.23,45.23,0,0,0-1.71,7.42ZM264.9,628.76v1.68A2.85,2.85,0,0,0,264.9,628.76Zm19.53-51.1-2.86.35a3.12,3.12,0,0,0-.65.18,3.13,3.13,0,0,1-.77.2l-1.54.19c-.63.08-1.28.62-1.95,1.61a9,9,0,0,0-1.35,3.85,25.13,25.13,0,0,0-.24,3q0,2.31.06,4.83t.06,4.83V612c.08,1.4.12,3,.12,4.93s0,3.49,0,4.73c0,2.64-.14,5.27-.18,7.8s-.06,5-.06,7.57v4q0,1.89.06,3.78c0,1.25,0,2.62-.06,4a14.24,14.24,0,0,0,.71,4.75c.63,1.91,1.34,3,2.36,2.86l3.31-.41a2.08,2.08,0,0,1,.54,0,1.4,1.4,0,0,0,.53,0l5.37-.64a1.93,1.93,0,0,0,1.07,0A10.29,10.29,0,0,0,290,655a.86.86,0,0,0,.42-.16.78.78,0,0,1,.3-.14,3.18,3.18,0,0,0,1.56-1.86,10.8,10.8,0,0,0,.85-3.67V645.8c0-1.26.08-2.35.12-3.17s0-1.93.06-3.27.14-2.46.18-3.27,0-1.54-.06-2.52,0-1.92-.06-2.73-.12-1.81-.12-2.93V593.12c0-1.75,0-3.48.12-5.16a38.42,38.42,0,0,0-.48-7.3,7.93,7.93,0,0,0-.67-1.82,8.13,8.13,0,0,0-.9-1.37q-.36-.37-1.56-.24l-5.37.64Zm20,48a1.12,1.12,0,0,1-.13-.62V624A3,3,0,0,0,304.44,625.69Z" transform="translate(-52.61 -119.72)"/><path d="M365.87,605.92v-13c13.7-.45,27.42-.8,41.15-1.13v13C393.29,605.13,379.57,605.47,365.87,605.92Z" transform="translate(-52.61 -119.72)"/><path d="M490.11,659.41a8.64,8.64,0,0,1-2.16.22c-7.67,0-11.48.09-19.05.21a1,1,0,0,1-.57.22h-.56a3.06,3.06,0,0,1-2.13-1.43,6.6,6.6,0,0,1-.57-2.71c0-.8-.17-1.82-.21-2.93s-.07-2.24-.07-3.36a4.26,4.26,0,0,1,0-2.51,8.58,8.58,0,0,1,.92-2.22,1.83,1.83,0,0,1,1.49-1l3.41-.06a.93.93,0,0,1,.36-.32.83.83,0,0,0,.35-.53V615.36a2.4,2.4,0,0,0,0-1.68v-.42a34.88,34.88,0,0,0-2.06-7.2q-1.63-4.26-3.62-5.28,2-.46,3.48-3.31a31.44,31.44,0,0,0,2.2-5.17V567.77c0-.56-.1-1.16-.14-1.68s-.19-1.05-.57-1l-1.35,0a3.94,3.94,0,0,1-1.35-.18.72.72,0,0,1-.5-.2.69.69,0,0,0-.5-.21,4.06,4.06,0,0,1-1.41-2.28c-.05-1.35-.17-2.89-.22-4.5s-.07-3.18-.07-4.72.21-2.72.64-3.15a5,5,0,0,1,2.18-1.09c13.59-.23,20.55-.28,34.4-.26,1.16,0,2.31,0,3.47.12s2.26.11,3.31.12h1.44a3.74,3.74,0,0,1,1.8,1.06,5.27,5.27,0,0,1,.79,2.31v13.42c0,1.12,0,2.27.07,3.46s.17,2.45.22,3.67c0,.54,0,1.19,0,1.89a10.61,10.61,0,0,1-.15,1.88,12.6,12.6,0,0,0,0,3.78,4.67,4.67,0,0,1-.93,2.3,4.13,4.13,0,0,1-2.23,1.45,2.4,2.4,0,0,0-1.51-.33,9.83,9.83,0,0,0-1.51.31h-2.6a4.45,4.45,0,0,1-2.17-.43,4.5,4.5,0,0,1-1.45-1.57,3.69,3.69,0,0,1-.29-2.62v-1.68a9,9,0,0,1,.07-1,8.73,8.73,0,0,0,.07-1c.1-1.4.17-2.76.22-4.09s0-2.73-.07-4.09-.58-2.44-1.74-2.73H490.4c-1.83,0-3.66.09-5.48.24-.19,0-.43.22-.72.64V567c0,2.23,0,4.44.08,6.6s.07,4.37.07,6.61v6.39c0,2.17,0,4.3.14,6.39v1.26a7.77,7.77,0,0,1,2,.19h-.15a16.28,16.28,0,0,0,1.89.3,4.8,4.8,0,0,0,2.18-.33.9.9,0,0,1,.36.11,1.16,1.16,0,0,0,.51.1h.58l-.43-.21c1.06.14,2.13.23,3.2.3s2.14.11,3.21.1c.78,0,1.54,0,2.27-.1s1.48-.1,2.26-.1a2.34,2.34,0,0,1,.65.1,2.07,2.07,0,0,0,.66.11h1.45c1.45.42,2.18,1.61,2.18,3.57v8.38c0,2.24-.92,3.56-2.76,4-7.27,0-11,0-18.21,0a4.81,4.81,0,0,0-1.59.22l-.14.21a10.81,10.81,0,0,0-.15,1.89v10.27c-.1,1.54-.12,3-.07,4.51s.07,2.9.07,4.3V641a4.42,4.42,0,0,0,.3,2.1c.19.28.63.41,1.32.41l2.36,0c1.76,0,2.65,1.18,2.65,3.55v10.7C490.72,658.4,490.52,658.74,490.11,659.41Zm-18.64-49.92v-3.57c0,.7,0,1.37-.08,2s-.07,1.3-.07,2c0-.14,0-.21.07-.22S471.47,609.63,471.47,609.49Z" transform="translate(-52.61 -119.72)"/><path d="M555.36,645.61a25.93,25.93,0,0,1,.84,3.17,11.72,11.72,0,0,1,0,3.56c-.19,1.39-.28,2.23-.28,2.51a3.17,3.17,0,0,1-.07.73,3.17,3.17,0,0,0-.07.73,4.54,4.54,0,0,1-.28,1.46,9,9,0,0,1-.07,1.05c0,.41-.07.69-.07.83a35.3,35.3,0,0,1-5.71.57c-2.79.12-5.55.16-8.27.09-2.16,0-4.06-.12-5.71-.23a20.22,20.22,0,0,1-3.32-.38,5.9,5.9,0,0,1-1.14-3c0-1.36-.14-3-.14-4.83v-4.61a4,4,0,0,1,.64-2.72,4.79,4.79,0,0,1,1.77-1l3,.06c.28,0,.42-.27.42-.83v-5c.09-.56.16-1.08.21-1.57s.07-1.08.07-1.78V634c0-.14.05-.21.14-.21a33.48,33.48,0,0,1-.28-4.51c0-1.6.1-3.15.14-4.5,0-.55,0-1.23.07-2a18.44,18.44,0,0,0,.07-2c0-1.08-.14-2.48-.14-4.08V612a53.94,53.94,0,0,0-2.11-6.65c-.94-2.46-2-4-3.26-4.57a5.4,5.4,0,0,0,3.11-2.46A16,16,0,0,0,537,594V590.4q0-4.39-.07-8.91t-.07-9.34V570.9a2.74,2.74,0,0,1,.14-.84v.21a11.92,11.92,0,0,0,0-3.77,3.26,3.26,0,0,0-.07-.74,3.17,3.17,0,0,1-.07-.73c-.19-.28-.38-.43-.56-.43a3.54,3.54,0,0,0-.85.19,10.91,10.91,0,0,1-1.2,0,2.8,2.8,0,0,1-1.21-.23c-1.31-.3-2-1.43-2-3.39v-9.43c0-2.1.76-3.14,2.27-3.11a4.27,4.27,0,0,0,1-.08,7.42,7.42,0,0,1,1-.09,16,16,0,0,1,2.19-.16,5,5,0,0,1,2.18.47l.84,0c.75,0,1.48,0,2.18-.06s1.43-.07,2.18-.05l3.92.11a3.34,3.34,0,0,1,1.19-.18l1.18,0,.7,0a1.56,1.56,0,0,0,.56-.09,1.53,1.53,0,0,1,.56-.09q2.36.7,2.78,3.86v9c0,2.23-1,3.1-1.95,3.29a3.73,3.73,0,0,1-1,.18l-1,0a3.8,3.8,0,0,0-1.39.17c-.19,0-.28.2-.28.62a1.54,1.54,0,0,1-.07.42,1.22,1.22,0,0,0-.07.41v1.26c0,1.26,0,2.52-.07,3.78s-.07,2.44-.07,3.56v17.82A22.23,22.23,0,0,0,552,598q1.53,2.88,3.48,3.36a4.09,4.09,0,0,0-1.81,1.73,23.93,23.93,0,0,0-1.6,3.09,25.66,25.66,0,0,0-1.26,3.64c-.32,1.24-.58,2.36-.76,3.33v27.25c0,.71.09,1.44.14,2.11a1.5,1.5,0,0,0,.83,1.28,9,9,0,0,1,1.75.26,8,8,0,0,1,1.88.68Zm-17.93-31.72v1.68A2.4,2.4,0,0,0,537.43,613.89Zm12.5,2a1.09,1.09,0,0,1-.14-.63v-1A2.75,2.75,0,0,0,549.93,615.88Z" transform="translate(-52.61 -119.72)"/><path d="M582.39,581.88a1.76,1.76,0,0,0-.68.07,1.83,1.83,0,0,1-.69.07,9.32,9.32,0,0,1-1.51.25c-.55,0-1.07,0-1.37,0a9.85,9.85,0,0,1-1.79.14l-1.93-.09q-2.2-.09-2.62-3.67v-23.9c0-2,.23-3.24.69-3.85a2.62,2.62,0,0,1,2.34-.85q23.28,1,46.52,2.58a6.84,6.84,0,0,1,1.24.19,3.59,3.59,0,0,1,1.65.85c.38.5.39,2,.39,3.38v7.55c0,2.51,0,5,.13,7.56v6.92a17.92,17.92,0,0,1-.13,2.29,5.07,5.07,0,0,1-.66,2,2.15,2.15,0,0,1-1.58,1,7.88,7.88,0,0,1-1.72.09l-1.72-.12a15.33,15.33,0,0,0-1.79,0,15.32,15.32,0,0,1-1.66,0q-1.59-.11-1.86-2.85a7.16,7.16,0,0,1-.14-1.48v-9.85a1.75,1.75,0,0,0-1.06-1.75,25.86,25.86,0,0,0-3.67-.22c-1.21-.08-2.51,0-3.69,0-.33,0-.53.25-.53.81v1.77a14.3,14.3,0,0,0,.13,1.79v2.93a38,38,0,0,0-.27,4.48c0,1.46.05,3,.14,4.5v4c0,.7,0,1.36.06,2s.07,1.3.07,2c0,.41,0,.94-.07,1.56s-.06,1.21-.06,1.77a26.17,26.17,0,0,0,2.05,4.93,5.68,5.68,0,0,0,3.27,3.13c-1.36.61-2.56,2.39-3.61,5.32a39.25,39.25,0,0,0-2,7.31v.21a4.29,4.29,0,0,0,.13,1.47.8.8,0,0,1-.13-.43v-1a6.62,6.62,0,0,0,.07.94,8.49,8.49,0,0,1,.06.95q.14,6.69.2,13.5t.34,13.5c0,.42.17.64.53.66l3.06.18c1.6.1,2.39,1.43,2.39,4v4.57c0,1.49,0,3-.13,4.56-.1,2-.8,3.13-2.13,3.47-5.06-.31-7.6-.45-12.73-.73a13.18,13.18,0,0,0-1.66,0,13.58,13.58,0,0,1-1.53,0l-3.24-.17a3.41,3.41,0,0,1-.74-.14,5.13,5.13,0,0,1-1.43-.81,19.88,19.88,0,0,1-.74-5c-.05-1.77,0-3.33.07-4.57a18.41,18.41,0,0,1,.27-2.54,6.84,6.84,0,0,1,.88-2.71,2.28,2.28,0,0,1,2.1-.75l1.21.06a2.91,2.91,0,0,0,.81-.17.56.56,0,0,0,.54-.59,15.32,15.32,0,0,0,.13-2.3V617.47a2.49,2.49,0,0,0,0-1.67v-.42a37.15,37.15,0,0,0-2-7.32q-1.59-4.37-3.54-5.51c1.3-.21,2.43-1.24,3.4-3.07a18.42,18.42,0,0,0,2.14-5c.52-3.7-.11-8.68-.06-13.07s.25-8.57.06-12a3.1,3.1,0,0,0-.4-1.59,1.5,1.5,0,0,0-1.09-.37l-6.4-.32a1.62,1.62,0,0,0-.82,1,4.61,4.61,0,0,0-.14,1.25v8.39a14.49,14.49,0,0,1-.14,2.51v-.63c0,.14,0,.21-.07.21s-.06.06-.06.2Zm10.36,28.81v-2.51c0,.7,0,1.33-.07,1.88s-.07,1.19-.07,1.88a2.35,2.35,0,0,1,.07-.62A2.32,2.32,0,0,0,592.75,610.69Z" transform="translate(-52.61 -119.72)"/><path d="M696.28,606.13a4.2,4.2,0,0,1,1.58-.24c6.34.71,9.48,1.08,15.71,1.83a5.48,5.48,0,0,1,1.95,1.17,4.41,4.41,0,0,1,.65,2.5,9.51,9.51,0,0,0,4,2.8c-.87.31-1.65,1.33-2.36,3.06a31.17,31.17,0,0,0-1.66,5.46c-.08,1.53-.12,3-.12,4.39v30.4c0,1.54,0,3.14.06,4.83s.06,3.36.06,5c0,2.79-.16,4.38-.47,4.76s-1.3.39-2.73.3c-1.26-.09-2.85-.17-4.53-.44s-3.23-.55-4.67-.85l-3.86-.44a47,47,0,0,0-5.45-.61,5.11,5.11,0,0,0-1,0,4.55,4.55,0,0,1-1,0l-1.95-.21a6.45,6.45,0,0,1-2.27-.24c-.69-.21-1.42-.41-2-.63a6.38,6.38,0,0,0-1.6-.38,1.27,1.27,0,0,1-1-.73,19.62,19.62,0,0,1-4.57-5,21.22,21.22,0,0,1-2.85-7.93v.21a55.77,55.77,0,0,1-1-10.59V627.4a4,4,0,0,1,.06-.73,3.65,3.65,0,0,0,.07-.72,2.12,2.12,0,0,1,.06-.52,2.85,2.85,0,0,0,.06-.52v-.21c-.08-.7-.15-1.38-.19-2a10.26,10.26,0,0,1,.07-2c-.17-1-.42-2.14-.75-3.43s-.7-2.52-1.12-3.68a20.42,20.42,0,0,0-1.37-3.06,4.75,4.75,0,0,0-1.62-1.84,4.27,4.27,0,0,0,2.86-2.45,19.15,19.15,0,0,0,1.87-4.42V581.07a48.72,48.72,0,0,1,1.61-13.26c1.47-5.1,3.8-8.28,6.68-9.38a8.84,8.84,0,0,1,4.3-.39c6.81.72,10.18,1.09,16.86,1.86,1.2.14,2.38.25,3.53.31a18.48,18.48,0,0,1,3.4.51l.6.07a3.11,3.11,0,0,1,2.26,1q.58.81.59,5.48v6.8c0,1.13,0,2.3.06,3.5s0,2.38.06,3.47c0,1.52.14,3.27.18,5.16s.05,3.61.05,5.15v1.68c0,2.09-.67,3.27-2,3.52l-6.09-.72c-1.43-.59-2.15-2.06-2.15-4.44V581.34q0-.42-.06-1.05c0-.43-.06-.85-.06-1.27v-1.88c0-.42-.12-.64-.36-.67-5.62-.65-8.46-1-14.17-1.58a2.38,2.38,0,0,0-2.57,1H688a7.25,7.25,0,0,0-1.47,5.07v41.72a25.49,25.49,0,0,1-.25,3.84v10.66c0,3.07,0,6.3.25,9.44a10.82,10.82,0,0,0,1.16,4.1A4.76,4.76,0,0,0,690,653a2.5,2.5,0,0,1,.61.17,2.88,2.88,0,0,0,.61.17,10,10,0,0,0,1.16.44,5.24,5.24,0,0,0,1,.21,1,1,0,0,0,.49,0,1.16,1.16,0,0,1,.49-.05l1.7.19a5.82,5.82,0,0,1,1,.21,4.1,4.1,0,0,0,1,.21l1.51.17a5.28,5.28,0,0,1,1.51.38l4,.46c.4,0,.6-.35.6-1.19V636.43q0-5.13-.12-10.6v-1.26c0-.83-.24-1.28-.72-1.34l-4.46-.51-1.57-.17a7.3,7.3,0,0,1-1.33-.36c-1.28-.42-2.3-1.93-2.3-4.87v-5.24c0-.42,0-.84.06-1.25s.06-.83.06-1.25a.63.63,0,0,1,.06-.31,1.29,1.29,0,0,0,.06-.52,5.88,5.88,0,0,1,.24-1.65ZM675.53,622.2a1.32,1.32,0,0,1-.06.52,1.26,1.26,0,0,0-.06.51v.63A2.94,2.94,0,0,0,675.53,622.2Zm39.93,6.08a.88.88,0,0,1-.12-.43V626.8A4.77,4.77,0,0,0,715.46,628.28Z" transform="translate(-52.61 -119.72)"/><path d="M778.66,582.35c-.07,2.54-.75,3.85-2.06,3.92a1.9,1.9,0,0,1-.92.07l-1-.17c-.36,0-.58,0-.65.11l-.55,1.38.11-.2a4.86,4.86,0,0,0-.38.89,2.62,2.62,0,0,0-.17.69l-.87,3.42q-.66,2.4-1.59,5.9c-.62,2.34-1.28,4.7-2,7.1l-2,7q-1,3.39-1.77,5.36a26.33,26.33,0,0,0,1.66,2.33,4.28,4.28,0,0,0,1.55,1.28,4.4,4.4,0,0,0-1.94,1.8,30.6,30.6,0,0,0-2,3.47,37.45,37.45,0,0,0-1.72,3.83c-.49,1.26-.84,2.22-1.06,2.88q.1,3,.11,6.2v21.49c.15.73.26,1.09.33,1.1l2.23.33c1,.16,1.66,1.3,1.88,3.43.07.71.11,2,.11,3.79v3c0,1.05-.07,1.94-.11,2.6-.16,2.29-.74,3.6-2,3.69a6,6,0,0,1-1.27.12,2.91,2.91,0,0,1-1.28-.29,3.17,3.17,0,0,0-1.39-.31c-.48,0-1.06.09-1.51.09a30.11,30.11,0,0,1-4.49-.76c-1.5-.28-3-.6-4.51-.95l-.57-.08a3.27,3.27,0,0,1-1.25-1.23,8,8,0,0,1-.56-2.17v-8.81c0-2.23.64-3.47,1.92-3.71l1.93.27c.37,0,.6-.33.68-1.16v.21c.07-1,.11-1.87.11-2.71v-5.87c0-1.12,0-2.16.11-3.13q-.23-3-.22-6V631.15c-.31-1-.72-2.2-1.25-3.53s-1.09-2.68-1.7-4a36.07,36.07,0,0,0-1.92-3.73,7.24,7.24,0,0,0-1.83-2.24c.84,0,1.9-.78,3.19-2.27-.73-2.6-1.09-3.9-1.82-6.51-.73-2.26-1.09-3.4-1.82-5.67l-1.6-5.64v.21l-1-3.68c-1.33-4.69-2-7-3.33-11.71-.23-.73-.61-1.12-1.15-1.2l-2-.26c-1.23-.16-1.85-1.45-1.85-3.85v-9.56c0-2.4,1-3.66,2.08-3.33a8.26,8.26,0,0,0,1.16.36l1.15.16A7.39,7.39,0,0,1,739,565a8.1,8.1,0,0,0,1.2.26l1.2.17a5.68,5.68,0,0,0,1.2,0,3.15,3.15,0,0,1,1.95.9,6.28,6.28,0,0,1,1.36,2.91l1.82,7.18q.91,3.69,1.87,7.18t1.87,7.18c1.22,4.7,1.82,7.06,3,11.76.72,2.87,1.08,4.31,1.79,7.18.5-2.11.74-3.16,1.24-5.27l.33-1.41.45-1.2c.15-.53.32-1.2.5-2s.28-1.08.28-.8l1.12-4.23c.26-1.14.4-1.7.67-2.83s.55-2.19.77-3.34a28,28,0,0,1,.89-3.33c.31-.91.58-1.9.84-2.91s.57-2,.94-3.1v.21c.8-2.82,1.19-4.22,2-7l-.33,1.86a12.6,12.6,0,0,1,2-4.79,2.34,2.34,0,0,1,2.63-.87l5,.77.65.11a1.85,1.85,0,0,1,.66.31c.45.23,1.28.49,1.46,1.08a12.92,12.92,0,0,1,.27,3.23Zm-21,20.34c0,.42.07.5.22.24s.07-.24.11-.4Zm3.57,31.76v-.63Q761,634.42,761.2,634.45Z" transform="translate(-52.61 -119.72)"/><path d="M845,583.92c0,1,0,2,0,2.94s.08,2,.14,3.18v4c0,2.38-.54,3.46-1.63,3.24L842,597a.59.59,0,0,1-.53.1l-.54-.1c-.06,0-.09,0-.09.19v.42a7.32,7.32,0,0,0-.1,1.24c0,.56,0,1.05,0,1.48s0,.85.05,1.27c0,1.38.11,2.88.14,4.43s0,2.93-.05,4.18v2.3c.07,1.14.1,2.47.1,4a26.92,26.92,0,0,1-.29,4.13v-.21a18.81,18.81,0,0,0,.1,4.22v-.21a26.56,26.56,0,0,1,.19,3,19.68,19.68,0,0,0,1.4,4.15,5.77,5.77,0,0,0,2,2.59c-.83.39-1.55,1.65-2.16,3.75a54.66,54.66,0,0,0-1.4,6v7.72c0,.42,0,.84-.05,1.24s0,.83,0,1.25v1.88c0,1.53,0,3.06,0,4.59s.05,3.08.05,4.6v4.7c0,1.6.06,3.19.09,4.71,0,.82.23,1.29.68,1.38l2,.4c1.16.23,1.69,1.62,1.83,4,0,.7.11,1.54.14,2.47s0,1.82,0,2.66v1.7c0,.29,0,.6,0,1s-.05.66-.05.95a6.8,6.8,0,0,1-.33,2.59,2.77,2.77,0,0,1-1.2,1.14l.09,0a.56.56,0,0,1-.52.1l-.53-.1-5.33-1a4.74,4.74,0,0,0-2.73-.52c-.41,0-1-.5-1.32-1.2a6.78,6.78,0,0,1-.64-2.74c-.07-1.13-.1-2.43-.1-3.9V654.54c0-1.53,0-3.15,0-4.83s0-3.29,0-4.83V632.51c0-.55,0-1.08,0-1.56s0-1,0-1.57a4.34,4.34,0,0,0,0-.53,5.38,5.38,0,0,1,0-.74v-1.47a5.45,5.45,0,0,1-.1-1.28c0-.66.12-1.34.15-2a10.56,10.56,0,0,0,0-1.79.69.69,0,0,0-.05-.32,1,1,0,0,1,0-.33v.21a19.87,19.87,0,0,1,.1-4.38l-.2-3a1.23,1.23,0,0,1-.09-.44v.21q-.6,2.82-1.23,5.74c-.43,1.94-.84,4.21-1.24,6.79-.2,1.08-.43,2.15-.69,3.22s-.56,2.27-.89,3.61l.1-.19a7.78,7.78,0,0,1-.3.89,6.13,6.13,0,0,0-.3.88l-1.44,7.18c-.5,2.49-1,4.87-1.55,7.15l-1.4,6.45c-.33,2-1.13,2.93-2.4,2.7l-3.13-.57a1.85,1.85,0,0,1-1.73-1.15,14.37,14.37,0,0,1-1.11-3.55V653L813,642.69c-1.47-6.55-2.21-9.83-3.69-16.38a55,55,0,0,1-1.34-6.52V620a15.6,15.6,0,0,1-.56-2.62c-.24-1.44-.5-2.81-.78-4.12v.21c-.45-1.75-.68-2.63-1.14-4.39v8.81c0,2.93,0,5.8-.05,8.58s0,5.62.05,8.4c.06,4.7,0,9.47,0,14.16s.06,9.51.16,14.39c.05,2.51.12,5.33.16,8.41s0,5.88,0,8.4c0,2.79-.16,4.45-.47,4.95s-1.12.64-2.44.41l-4-.69a36.24,36.24,0,0,0-3.94-.45l-.63-.11a3,3,0,0,1-.74-.33c-.69-.31-1.59-1.54-1.59-4.09,0-.56,0-1.17,0-1.81s-.06-1.32-.06-2v-5.31c.15-2.38.78-3.48,1.91-3.29l1.16.2.79.13a1.94,1.94,0,0,0,.9-.06v-1.46c0-.28,0-.62,0-1s0-.75,0-1c0-1.53,0-3.13,0-4.81s0-3.27,0-4.8V636.87A65.72,65.72,0,0,0,795,629.8c-.81-2.7-1.71-4.42-2.7-5.14a2.37,2.37,0,0,0,1.75-1.29,14.41,14.41,0,0,0,1.37-2.81,28.55,28.55,0,0,0,1-3.09,11,11,0,0,0,.37-2.35V590.18c-.15-.45-.29-.68-.43-.7a.53.53,0,0,0-.36,0,.65.65,0,0,1-.37,0l-.95-.16c-1.27-.21-2-.62-2.27-1.22a16.45,16.45,0,0,1-.38-4.67v-6.39c0-.63.08-1.25.11-1.77.11-1.71.53-2.64,1.59-2.46l.42.07a.14.14,0,0,0,.16-.08c0-.06.12-.08.26-.06,4.06.68,6.07,1,10,1.71a.12.12,0,0,1,.1.13c0,.07.11.12.31.16.76-.15,1.42.59,2,2.23.17.61.25.92.41,1.53l-.1-.22c.14.44.29,1,.47,1.55a16.17,16.17,0,0,1,.46,2c.17,1.11.43,2.67.87,4.56s.91,3.8,1.39,5.7a28.88,28.88,0,0,1,.72,2.85c.21,1,.41,2,.62,3l2.55,12c.16.53.24.8.41,1.33l-.11,0q.72,4.33,1.78,9.13t2.38,9.87c.13.6.19.91.31,1.52.06.43.13.83.2,1.19s.13.69.2,1v.21l.3-.58c.33-1.87.49-2.8.81-4.67v.21c.81-3.88,1.21-5.82,2-9.69l1.7-8.08v.21l1.1-5v.21a17.2,17.2,0,0,1,.55-2.3,16.25,16.25,0,0,0,.55-2.31c.48-2.43.72-3.64,1.19-6.07v.21c.6-3,.9-4.49,1.49-7.48l-.1,0c.13-.81.36-1.89.69-3.22s.64-2.64,1-3.8a4.71,4.71,0,0,1,1.09-1.89,1.5,1.5,0,0,1,1.28-.6,5.29,5.29,0,0,0,2.15.73c.72.07,1.44.17,2.15.31l1.85.36a8.91,8.91,0,0,1,1.93.58l.49.1q.19,0,.24-.06t.24-.06a2.6,2.6,0,0,1,2.31,1.08Zm-48.05,56a5.7,5.7,0,0,0-.11-1.69v1A1.44,1.44,0,0,0,796.92,639.9Zm7.62-33.71a1.91,1.91,0,0,0,.21.67C804.66,606.59,804.62,606.46,804.54,606.19Zm36,41.85a1.61,1.61,0,0,1-.1-.65v-1A4.2,4.2,0,0,0,840.54,648Z" transform="translate(-52.61 -119.72)"/></svg>